{
  "accessors": [
    {
      "bufferView": 2,
      "componentType": 5126,
      "count": 215,
      "max": [
        7.4593667984008789,
        4.785377025604248,
        7.5550999641418457
      ],
      "min": [
        -7.5803360939025879,
        -0.043359719216823578,
        -7.5141944885253906
      ],
      "type": "VEC3"
    },
    {
      "bufferView": 2,
      "byteOffset": 2580,
      "componentType": 5126,
      "count": 215,
      "max": [
        0.99661523103713989,
        0.99997466802597046,
        0.99987822771072388
      ],
      "min": [
        -0.99880224466323853,
        -0.99999850988388062,
        -0.99884021282196045
      ],
      "type": "VEC3"
    },
    {
      "bufferView": 3,
      "componentType": 5126,
      "count": 215,
      "max": [
        0.99947798252105713,
        0.92499017715454102,
        0.99977576732635498,
        1
      ],
      "min": [
        -0.99955439567565918,
        -0.99960404634475708,
        -0.9989020824432373,
        1
      ],
      "type": "VEC4"
    },
    {
      "bufferView": 1,
      "componentType": 5126,
      "count": 215,
      "max": [
        0.99608337879180908,
        1.000011682510376
      ],
      "min": [
        0.010811924934387207,
        0.0075408965349197388
      ],
      "type": "VEC2"
    },
    {
      "bufferView": 1,
      "byteOffset": 1720,
      "componentType": 5126,
      "count": 215,
      "max": [
        0.99608337879180908,
        1.000011682510376
      ],
      "min": [
        0.010811924934387207,
        0.0075408965349197388
      ],
      "type": "VEC2"
    },
    {
      "bufferView": 0,
      "componentType": 5125,
      "count": 846,
      "max": [
        214
      ],
      "min": [
        0
      ],
      "type": "SCALAR"
    },
    {
      "bufferView": 2,
      "byteOffset": 5160,
      "componentType": 5126,
      "count": 250,
      "max": [
        1.0751160383224487,
        0.14029499888420105,
        2.6531620025634766
      ],
      "min": [
        -0.94734102487564087,
        -0.15256799757480621,
        -5.7828550338745117
      ],
      "type": "VEC3"
    },
    {
      "bufferView": 2,
      "byteOffset": 8160,
      "componentType": 5126,
      "count": 250,
      "max": [
        1,
        1,
        0.98898375034332275
      ],
      "min": [
        -1,
        -1,
        -1
      ],
      "type": "VEC3"
    },
    {
      "bufferView": 3,
      "byteOffset": 3440,
      "componentType": 5126,
      "count": 250,
      "max": [
        0.99698144197463989,
        0.99985772371292114,
        0.41509681940078735,
        1
      ],
      "min": [
        -1,
        -0.99996823072433472,
        -0.575691819190979,
        -1
      ],
      "type": "VEC4"
    },
    {
      "bufferView": 1,
      "byteOffset": 3440,
      "componentType": 5126,
      "count": 250,
      "max": [
        0.84833335876464844,
        0.98854374885559082
      ],
      "min": [
        0.011567626148462296,
        0.016398433595895767
      ],
      "type": "VEC2"
    },
    {
      "bufferView": 1,
      "byteOffset": 5440,
      "componentType": 5126,
      "count": 250,
      "max": [
        0.84833335876464844,
        0.98854374885559082
      ],
      "min": [
        0.011567626148462296,
        0.016398433595895767
      ],
      "type": "VEC2"
    },
    {
      "bufferView": 1,
      "byteOffset": 7440,
      "componentType": 5126,
      "count": 250,
      "max": [
        0.84833335876464844,
        0.98854374885559082
      ],
      "min": [
        0.011567626148462296,
        0.016398433595895767
      ],
      "type": "VEC2"
    },
    {
      "bufferView": 0,
      "byteOffset": 3384,
      "componentType": 5125,
      "count": 954,
      "max": [
        249
      ],
      "min": [
        0
      ],
      "type": "SCALAR"
    },
    {
      "bufferView": 2,
      "byteOffset": 11160,
      "componentType": 5126,
      "count": 73,
      "max": [
        1.8323274850845337,
        4.7549881935119629,
        5.2124838829040527
      ],
      "min": [
        -5.2290849685668945,
        0.01440757978707552,
        -1.8359400033950806
      ],
      "type": "VEC3"
    },
    {
      "bufferView": 2,
      "byteOffset": 12036,
      "componentType": 5126,
      "count": 73,
      "max": [
        0.97071206569671631,
        0.99940407276153564,
        0.90621721744537354
      ],
      "min": [
        -0.97555339336395264,
        -0.9995349645614624,
        -0.9528120756149292
      ],
      "type": "VEC3"
    },
    {
      "bufferView": 3,
      "byteOffset": 7440,
      "componentType": 5126,
      "count": 73,
      "max": [
        0.75715750455856323,
        0.98793458938598633,
        0.94290387630462646,
        1
      ],
      "min": [
        -0.99066281318664551,
        -0.99971127510070801,
        -0.97504109144210815,
        1
      ],
      "type": "VEC4"
    },
    {
      "bufferView": 1,
      "byteOffset": 9440,
      "componentType": 5126,
      "count": 73,
      "max": [
        0.99174392223358154,
        0.84569776058197021
      ],
      "min": [
        0.54328405857086182,
        0.0093479156494140625
      ],
      "type": "VEC2"
    },
    {
      "bufferView": 1,
      "byteOffset": 10024,
      "componentType": 5126,
      "count": 73,
      "max": [
        0.99174392223358154,
        0.84569776058197021
      ],
      "min": [
        0.54328405857086182,
        0.0093479156494140625
      ],
      "type": "VEC2"
    },
    {
      "bufferView": 0,
      "byteOffset": 7200,
      "componentType": 5125,
      "count": 234,
      "max": [
        72
      ],
      "min": [
        0
      ],
      "type": "SCALAR"
    },
    {
      "bufferView": 2,
      "byteOffset": 12912,
      "componentType": 5126,
      "count": 228,
      "max": [
        0.45717477798461914,
        0.14029499888420105,
        2.6531620025634766
      ],
      "min": [
        -0.67426145076751709,
        -0.15256799757480621,
        -5.6662726402282715
      ],
      "type": "VEC3"
    },
    {
      "bufferView": 2,
      "byteOffset": 15648,
      "componentType": 5126,
      "count": 228,
      "max": [
        1,
        1,
        0.98898375034332275
      ],
      "min": [
        -1,
        -1,
        -1
      ],
      "type": "VEC3"
    },
    {
      "bufferView": 3,
      "byteOffset": 8608,
      "componentType": 5126,
      "count": 228,
      "max": [
        1,
        0.99999850988388062,
        0.41509681940078735,
        1
      ],
      "min": [
        -1,
        -0.99996823072433472,
        -0.575691819190979,
        1
      ],
      "type": "VEC4"
    },
    {
      "bufferView": 1,
      "byteOffset": 10608,
      "componentType": 5126,
      "count": 228,
      "max": [
        0.99435031414031982,
        0.98699742555618286
      ],
      "min": [
        0.011567626148462296,
        0.0074533037841320038
      ],
      "type": "VEC2"
    },
    {
      "bufferView": 1,
      "byteOffset": 12432,
      "componentType": 5126,
      "count": 228,
      "max": [
        0.99435031414031982,
        0.98699742555618286
      ],
      "min": [
        0.011567626148462296,
        0.0074533037841320038
      ],
      "type": "VEC2"
    },
    {
      "bufferView": 1,
      "byteOffset": 14256,
      "componentType": 5126,
      "count": 228,
      "max": [
        0.99435031414031982,
        0.98699742555618286
      ],
      "min": [
        0.011567626148462296,
        0.0074533037841320038
      ],
      "type": "VEC2"
    },
    {
      "bufferView": 0,
      "byteOffset": 8136,
      "componentType": 5125,
      "count": 864,
      "max": [
        227
      ],
      "min": [
        0
      ],
      "type": "SCALAR"
    }
  ],
  "asset": {
    "extras": {
      "author": "Wen Yeh (https://sketchfab.com/wenyeh1110)",
      "license": "CC-BY-4.0 (http://creativecommons.org/licenses/by/4.0/)",
      "source": "https://sketchfab.com/3d-models/food-cheese-1037c59cf3de4cbcaf1a6da3cf380bd0",
      "title": "Food - Cheese"
    },
    "generator": "Sketchfab-10.30.0",
    "version": "2.0"
  },
  "bufferViews": [
    {
      "buffer": 0,
      "byteLength": 11592,
      "byteOffset": 0,
      "name": "floatBufferViews",
      "target": 34963
    },
    {
      "buffer": 0,
      "byteLength": 16080,
      "byteOffset": 11592,
      "byteStride": 8,
      "name": "floatBufferViews",
      "target": 34962
    },
    {
      "buffer": 0,
      "byteLength": 18384,
      "byteOffset": 27672,
      "byteStride": 12,
      "name": "floatBufferViews",
      "target": 34962
    },
    {
      "buffer": 0,
      "byteLength": 12256,
      "byteOffset": 46056,
      "byteStride": 16,
      "name": "floatBufferViews",
      "target": 34962
    }
  ],
  "buffers": [
    {
      "byteLength": 58312,
      "uri": "scene.bin"
    }
  ],
  "images": [
    {
      "uri": "textures/fd_cheese_baseColor.jpeg"
    },
    {
      "uri": "textures/fd_cheese_normal.png"
    },
    {
      "uri": "textures/tl_tableware_baseColor.png"
    },
    {
      "uri": "textures/tl_tableware_metallicRoughness.png"
    },
    {
      "uri": "textures/tl_tableware_normal.png"
    }
  ],
  "materials": [
    {
      "doubleSided": true,
      "name": "fd_cheese",
      "normalTexture": {
        "index": 1,
        "scale": 1,
        "texCoord": 0
      },
      "pbrMetallicRoughness": {
        "baseColorFactor": [
          1,
          1,
          1,
          1
        ],
        "baseColorTexture": {
          "index": 0,
          "texCoord": 0
        },
        "metallicFactor": 0,
        "roughnessFactor": 0.5
      }
    },
    {
      "alphaMode": "BLEND",
      "doubleSided": true,
      "emissiveFactor": [
        0,
        0,
        0
      ],
      "name": "tl_tableware",
      "normalTexture": {
        "index": 4,
        "scale": 1,
        "texCoord": 0
      },
      "pbrMetallicRoughness": {
        "baseColorFactor": [
          1,
          1,
          1,
          1
        ],
        "baseColorTexture": {
          "index": 2,
          "texCoord": 0
        },
        "metallicFactor": 0,
        "metallicRoughnessTexture": {
          "index": 3,
          "texCoord": 0
        },
        "roughnessFactor": 1
      }
    }
  ],
  "meshes": [
    {
      "name": "cheese_1_fd_cheese_0",
      "primitives": [
        {
          "attributes": {
            "NORMAL": 1,
            "POSITION": 0,
            "TANGENT": 2,
            "TEXCOORD_0": 3,
            "TEXCOORD_1": 4
          },
          "indices": 5,
          "material": 0,
          "mode": 4
        }
      ]
    },
    {
      "name": "knife_tl_tableware_0",
      "primitives": [
        {
          "attributes": {
            "NORMAL": 7,
            "POSITION": 6,
            "TANGENT": 8,
            "TEXCOORD_0": 9,
            "TEXCOORD_1": 10,
            "TEXCOORD_2": 11
          },
          "indices": 12,
          "material": 1,
          "mode": 4
        }
      ]
    },
    {
      "name": "cheese_2_fd_cheese_0",
      "primitives": [
        {
          "attributes": {
            "NORMAL": 14,
            "POSITION": 13,
            "TANGENT": 15,
            "TEXCOORD_0": 16,
            "TEXCOORD_1": 17
          },
          "indices": 18,
          "material": 0,
          "mode": 4
        }
      ]
    },
    {
      "name": "fork_tl_tableware_0",
      "primitives": [
        {
          "attributes": {
            "NORMAL": 20,
            "POSITION": 19,
            "TANGENT": 21,
            "TEXCOORD_0": 22,
            "TEXCOORD_1": 23,
            "TEXCOORD_2": 24
          },
          "indices": 25,
          "material": 1,
          "mode": 4
        }
      ]
    }
  ],
  "nodes": [
    {
      "children": [
        1
      ],
      "name": "RootNode (gltf orientation matrix)",
      "rotation": [
        -0.70710678118654746,
        -0,
        -0,
        0.70710678118654757
      ]
    },
    {
      "children": [
        2
      ],
      "name": "RootNode (model correction matrix)"
    },
    {
      "children": [
        3
      ],
      "matrix": [
        1,
        0,
        0,
        0,
        0,
        0,
        1,
        0,
        0,
        -1,
        0,
        0,
        0,
        0,
        0,
        1
      ],
      "name": "cacadc95750f4e4ca280fb05d742cca8.fbx"
    },
    {
      "children": [
        4
      ],
      "name": "RootNode"
    },
    {
      "children": [
        5
      ],
      "name": "all_Cheese"
    },
    {
      "children": [
        6,
        11
      ],
      "matrix": [
        0.80000001192092896,
        0,
        0,
        0,
        0,
        0.80000001192092896,
        0,
        0,
        0,
        0,
        0.80000001192092896,
        0,
        0,
        0,
        0,
        1
      ],
      "name": "cheese_cc"
    },
    {
      "children": [
        7,
        9
      ],
      "matrix": [
        0.29490284721550419,
        0,
        -0.9555272422616683,
        0,
        0,
        1,
        0,
        0,
        0.9555272422616683,
        0,
        0.29490284721550419,
        0,
        0.24224391579627991,
        0,
        -0.17875522375106812,
        1
      ],
      "name": "piece_cc_2"
    },
    {
      "children": [
        8
      ],
      "matrix": [
        1,
        0,
        5.5511151231257827e-17,
        0,
        0,
        1,
        0,
        0,
        -5.5511151231257827e-17,
        0,
        1,
        0,
        1.8041124150158794e-15,
        0,
        0,
        1
      ],
      "name": "cheese_1"
    },
    {
      "mesh": 0,
      "name": "cheese_1_fd_cheese_0"
    },
    {
      "children": [
        10
      ],
      "matrix": [
        0.1188480750435629,
        1.0257725762042145,
        -0.70439034417417212,
        0,
        -1.2225381231613504,
        -0.035611854557384137,
        -0.25813239477467176,
        0,
        -0.23189582246250767,
        0.71345807005201978,
        0.99985094379216566,
        0,
        -3.9116661548614502,
        8.5718498229980469,
        2.0031242370605469,
        1
      ],
      "name": "knife"
    },
    {
      "mesh": 1,
      "name": "knife_tl_tableware_0"
    },
    {
      "children": [
        12
      ],
      "matrix": [
        0.70710678118654791,
        0,
        -0.70710678118654713,
        0,
        0,
        1,
        0,
        0,
        0.70710678118654713,
        0,
        0.70710678118654791,
        0,
        -2.5989148616790771,
        0,
        2.5989148616790771,
        1
      ],
      "name": "piece_G"
    },
    {
      "children": [
        13,
        15
      ],
      "matrix": [
        0.26810787333710739,
        -0.42849402189363733,
        0.86285053251189958,
        0,
        -0.93429361181000781,
        0.10280466176705694,
        0.34135999831551983,
        0,
        -0.23497577574223322,
        -0.89767704366346379,
        -0.37277648811849673,
        0,
        4.4200334548950195,
        1.6118055582046509,
        8.086726188659668,
        1
      ],
      "name": "piece_cc_1"
    },
    {
      "children": [
        14
      ],
      "matrix": [
        0.70145284000814645,
        8.3266726846886716e-17,
        0.71271587132917547,
        0,
        -1.1870609412019726e-16,
        1,
        0,
        0,
        -0.71271587132917547,
        -8.4603717302959487e-17,
        0.70145284000814645,
        0,
        0.97176235914230347,
        -4.4408920985006262e-16,
        -2.6645352591003757e-15,
        1
      ],
      "name": "cheese_2"
    },
    {
      "mesh": 2,
      "name": "cheese_2_fd_cheese_0"
    },
    {
      "children": [
        16
      ],
      "matrix": [
        0.7748601483251254,
        -0.95112860552885581,
        -0.23967921537400597,
        0,
        -0.86298113212857586,
        -0.80625064100707577,
        0.4095405589996699,
        0,
        -0.4662138094561834,
        -0.0883984141283925,
        -1.1564300256617086,
        0,
        -2.8367903232574463,
        2.7467262744903564,
        -7.7874331474304199,
        1
      ],
      "name": "fork"
    },
    {
      "mesh": 3,
      "name": "fork_tl_tableware_0"
    }
  ],
  "samplers": [
    {
      "magFilter": 9729,
      "minFilter": 9987,
      "wrapS": 10497,
      "wrapT": 10497
    }
  ],
  "scene": 0,
  "scenes": [
    {
      "name": "OSG_Scene",
      "nodes": [
        0
      ]
    }
  ],
  "textures": [
    {
      "sampler": 0,
      "source": 0
    },
    {
      "sampler": 0,
      "source": 1
    },
    {
      "sampler": 0,
      "source": 2
    },
    {
      "sampler": 0,
      "source": 3
    },
    {
      "sampler": 0,
      "source": 4
    }
  ]
}

