{
  "accessors": [
    {
      "bufferView": 1,
      "componentType": 5126,
      "count": 1054,
      "max": [
        0.058017000555992126,
        0.099624998867511749,
        1.3949999809265137
      ],
      "min": [
        0.01327100396156311,
        0.008237004280090332,
        1.3323800563812256
      ],
      "type": "VEC3"
    },
    {
      "bufferView": 1,
      "byteOffset": 12648,
      "componentType": 5126,
      "count": 1054,
      "max": [
        0.99942499399185181,
        0.99510866403579712,
        0.99924665689468384
      ],
      "min": [
        -0.98516833782196045,
        -0.99799609184265137,
        -0.99857848882675171
      ],
      "type": "VEC3"
    },
    {
      "bufferView": 2,
      "componentType": 5126,
      "count": 1054,
      "max": [
        0.9999997615814209,
        0.99963289499282837,
        0.96736681461334229,
        1
      ],
      "min": [
        -0.99996489286422729,
        -0.99992692470550537,
        -0.93765103816986084,
        -1
      ],
      "type": "VEC4"
    },
    {
      "bufferView": 0,
      "componentType": 5125,
      "count": 3072,
      "max": [
        1053
      ],
      "min": [
        0
      ],
      "type": "SCALAR"
    },
    {
      "bufferView": 1,
      "byteOffset": 25296,
      "componentType": 5126,
      "count": 2771,
      "max": [
        0.41864201426506042,
        0.19527199864387512,
        1.1536999940872192
      ],
      "min": [
        0.063962012529373169,
        0.10005999356508255,
        0.84145700931549072
      ],
      "type": "VEC3"
    },
    {
      "bufferView": 1,
      "byteOffset": 58548,
      "componentType": 5126,
      "count": 2771,
      "max": [
        0.99976778030395508,
        0.97944974899291992,
        0.99720239639282227
      ],
      "min": [
        -0.99978029727935791,
        -0.99479979276657104,
        -0.99958217144012451
      ],
      "type": "VEC3"
    },
    {
      "bufferView": 2,
      "byteOffset": 16864,
      "componentType": 5126,
      "count": 2771,
      "max": [
        1,
        0.99981826543807983,
        0.94906610250473022,
        1
      ],
      "min": [
        -0.99992531538009644,
        -0.99993717670440674,
        -0.94906604290008545,
        -1
      ],
      "type": "VEC4"
    },
    {
      "bufferView": 0,
      "byteOffset": 12288,
      "componentType": 5125,
      "count": 9123,
      "max": [
        2770
      ],
      "min": [
        0
      ],
      "type": "SCALAR"
    },
    {
      "bufferView": 1,
      "byteOffset": 91800,
      "componentType": 5126,
      "count": 193,
      "max": [
        0.33362102508544922,
        0.33969497680664062,
        0.22646400332450867
      ],
      "min": [
        0.010137006640434265,
        0.016211003065109253,
        0
      ],
      "type": "VEC3"
    },
    {
      "bufferView": 1,
      "byteOffset": 94116,
      "componentType": 5126,
      "count": 193,
      "max": [
        1,
        1,
        1
      ],
      "min": [
        -1,
        -1,
        -1
      ],
      "type": "VEC3"
    },
    {
      "bufferView": 2,
      "byteOffset": 61200,
      "componentType": 5126,
      "count": 193,
      "max": [
        1,
        1,
        1,
        1
      ],
      "min": [
        -1,
        -1,
        -1,
        -1
      ],
      "type": "VEC4"
    },
    {
      "bufferView": 0,
      "byteOffset": 48780,
      "componentType": 5125,
      "count": 732,
      "max": [
        192
      ],
      "min": [
        0
      ],
      "type": "SCALAR"
    },
    {
      "bufferView": 1,
      "byteOffset": 96432,
      "componentType": 5126,
      "count": 1695,
      "max": [
        0.36798501014709473,
        0.15006500482559204,
        0.82841199636459351
      ],
      "min": [
        0.30196401476860046,
        0.098857000470161438,
        0.75908499956130981
      ],
      "type": "VEC3"
    },
    {
      "bufferView": 1,
      "byteOffset": 116772,
      "componentType": 5126,
      "count": 1695,
      "max": [
        0.86777544021606445,
        0.97376555204391479,
        0.73504906892776489
      ],
      "min": [
        -0.86885571479797363,
        -0.995258629322052,
        -0.75232690572738647
      ],
      "type": "VEC3"
    },
    {
      "bufferView": 2,
      "byteOffset": 64288,
      "componentType": 5126,
      "count": 1695,
      "max": [
        0.99788904190063477,
        0.89534306526184082,
        0.93743324279785156,
        1
      ],
      "min": [
        -0.97603720426559448,
        -0.89620965719223022,
        -0.93766987323760986,
        -1
      ],
      "type": "VEC4"
    },
    {
      "bufferView": 0,
      "byteOffset": 51708,
      "componentType": 5125,
      "count": 4236,
      "max": [
        1694
      ],
      "min": [
        0
      ],
      "type": "SCALAR"
    },
    {
      "bufferView": 1,
      "byteOffset": 137112,
      "componentType": 5126,
      "count": 430,
      "max": [
        0.19389700889587402,
        0.0091120004653930664,
        0.11130200326442719
      ],
      "min": [
        0.14762401580810547,
        0.0080910027027130127,
        0.10015899688005447
      ],
      "type": "VEC3"
    },
    {
      "bufferView": 1,
      "byteOffset": 142272,
      "componentType": 5126,
      "count": 430,
      "max": [
        0,
        1,
        0
      ],
      "min": [
        0,
        -1,
        0
      ],
      "type": "VEC3"
    },
    {
      "bufferView": 0,
      "byteOffset": 68652,
      "componentType": 5125,
      "count": 2436,
      "max": [
        429
      ],
      "min": [
        0
      ],
      "type": "SCALAR"
    },
    {
      "bufferView": 1,
      "byteOffset": 147432,
      "componentType": 5126,
      "count": 258,
      "max": [
        0.41421601176261902,
        0.20938199758529663,
        1.1536999940872192
      ],
      "min": [
        0.063962012529373169,
        0.087550997734069824,
        0.69660300016403198
      ],
      "type": "VEC3"
    },
    {
      "bufferView": 1,
      "byteOffset": 150528,
      "componentType": 5126,
      "count": 258,
      "max": [
        0.99696874618530273,
        0.94138586521148682,
        0.93472689390182495
      ],
      "min": [
        -0.99671298265457153,
        -0.94970566034317017,
        -0.9628104567527771
      ],
      "type": "VEC3"
    },
    {
      "bufferView": 2,
      "byteOffset": 91408,
      "componentType": 5126,
      "count": 258,
      "max": [
        0.99153405427932739,
        0.9997788667678833,
        0.86258500814437866,
        1
      ],
      "min": [
        -1,
        -0.99978059530258179,
        -0.95324498414993286,
        -1
      ],
      "type": "VEC4"
    },
    {
      "bufferView": 0,
      "byteOffset": 78396,
      "componentType": 5125,
      "count": 555,
      "max": [
        257
      ],
      "min": [
        0
      ],
      "type": "SCALAR"
    },
    {
      "bufferView": 1,
      "byteOffset": 153624,
      "componentType": 5126,
      "count": 4998,
      "max": [
        0.41421601176261902,
        0.31423401832580566,
        1.3343100547790527
      ],
      "min": [
        0.0017460137605667114,
        0,
        0.25088000297546387
      ],
      "type": "VEC3"
    },
    {
      "bufferView": 1,
      "byteOffset": 213600,
      "componentType": 5126,
      "count": 4998,
      "max": [
        0.99999552965164185,
        0.99689924716949463,
        1
      ],
      "min": [
        -0.99909836053848267,
        -0.99903500080108643,
        -1
      ],
      "type": "VEC3"
    },
    {
      "bufferView": 2,
      "byteOffset": 95536,
      "componentType": 5126,
      "count": 4998,
      "max": [
        1,
        0.99999809265136719,
        0.99447184801101685,
        1
      ],
      "min": [
        -1,
        -0.99999779462814331,
        -0.99672991037368774,
        -1
      ],
      "type": "VEC4"
    },
    {
      "bufferView": 0,
      "byteOffset": 80616,
      "componentType": 5125,
      "count": 16503,
      "max": [
        4997
      ],
      "min": [
        0
      ],
      "type": "SCALAR"
    },
    {
      "bufferView": 1,
      "byteOffset": 273576,
      "componentType": 5126,
      "count": 1277,
      "max": [
        0.40875601768493652,
        0.2078699916601181,
        1.3265000581741333
      ],
      "min": [
        0.024707004427909851,
        0.025702998042106628,
        0.2552030086517334
      ],
      "type": "VEC3"
    },
    {
      "bufferView": 1,
      "byteOffset": 288900,
      "componentType": 5126,
      "count": 1277,
      "max": [
        0.99909573793411255,
        0.99689924716949463,
        1
      ],
      "min": [
        -0.99909836053848267,
        -0.99690186977386475,
        -1
      ],
      "type": "VEC3"
    },
    {
      "bufferView": 2,
      "byteOffset": 175504,
      "componentType": 5126,
      "count": 1277,
      "max": [
        1,
        0.99966388940811157,
        0.99677383899688721,
        1
      ],
      "min": [
        -1,
        -0.99975377321243286,
        -0.99450325965881348,
        -1
      ],
      "type": "VEC4"
    },
    {
      "bufferView": 0,
      "byteOffset": 146628,
      "componentType": 5125,
      "count": 3735,
      "max": [
        1276
      ],
      "min": [
        0
      ],
      "type": "SCALAR"
    },
    {
      "bufferView": 1,
      "byteOffset": 304224,
      "componentType": 5126,
      "count": 8076,
      "max": [
        0.39890000224113464,
        0.31423401832580566,
        1.3334599733352661
      ],
      "min": [
        0.0017460137605667114,
        0,
        0.25088000297546387
      ],
      "type": "VEC3"
    },
    {
      "bufferView": 1,
      "byteOffset": 401136,
      "componentType": 5126,
      "count": 8076,
      "max": [
        0.99999552965164185,
        0.99988150596618652,
        1
      ],
      "min": [
        -0.99982309341430664,
        -0.99996185302734375,
        -1
      ],
      "type": "VEC3"
    },
    {
      "bufferView": 2,
      "byteOffset": 195936,
      "componentType": 5126,
      "count": 8076,
      "max": [
        1,
        0.99999552965164185,
        0.98544764518737793,
        1
      ],
      "min": [
        -1,
        -0.99999552965164185,
        -0.99592190980911255,
        -1
      ],
      "type": "VEC4"
    },
    {
      "bufferView": 0,
      "byteOffset": 161568,
      "componentType": 5125,
      "count": 24450,
      "max": [
        8075
      ],
      "min": [
        0
      ],
      "type": "SCALAR"
    },
    {
      "bufferView": 1,
      "byteOffset": 498048,
      "componentType": 5126,
      "count": 6671,
      "max": [
        0.41864201426506042,
        0.32886499166488647,
        1.3343100547790527
      ],
      "min": [
        0.0045760124921798706,
        0.0035089999437332153,
        0.21516899764537811
      ],
      "type": "VEC3"
    },
    {
      "bufferView": 1,
      "byteOffset": 578100,
      "componentType": 5126,
      "count": 6671,
      "max": [
        0.99974638223648071,
        0.99918675422668457,
        0.99771362543106079
      ],
      "min": [
        -0.99972975254058838,
        -0.99919933080673218,
        -0.99996024370193481
      ],
      "type": "VEC3"
    },
    {
      "bufferView": 2,
      "byteOffset": 325152,
      "componentType": 5126,
      "count": 6671,
      "max": [
        0.99997419118881226,
        0.99994957447052002,
        0.99863380193710327,
        1
      ],
      "min": [
        -1,
        -0.99997860193252563,
        -0.9996001124382019,
        -1
      ],
      "type": "VEC4"
    },
    {
      "bufferView": 0,
      "byteOffset": 259368,
      "componentType": 5125,
      "count": 12996,
      "max": [
        6670
      ],
      "min": [
        0
      ],
      "type": "SCALAR"
    },
    {
      "bufferView": 1,
      "byteOffset": 658152,
      "componentType": 5126,
      "count": 3648,
      "max": [
        0.20995400846004486,
        0.21605399250984192,
        1.0630700588226318
      ],
      "min": [
        0.13698899745941162,
        0.11938099563121796,
        0.93536698818206787
      ],
      "type": "VEC3"
    },
    {
      "bufferView": 1,
      "byteOffset": 701928,
      "componentType": 5126,
      "count": 3648,
      "max": [
        0.99999076128005981,
        0.9989243745803833,
        0.99996250867843628
      ],
      "min": [
        -0.99999076128005981,
        -0.99999290704727173,
        -0.9993249773979187
      ],
      "type": "VEC3"
    },
    {
      "bufferView": 2,
      "byteOffset": 431888,
      "componentType": 5126,
      "count": 3648,
      "max": [
        1,
        0.99999594688415527,
        0.95298570394515991,
        1
      ],
      "min": [
        -1,
        -0.9999958872795105,
        -0.95287913084030151,
        -1
      ],
      "type": "VEC4"
    },
    {
      "bufferView": 0,
      "byteOffset": 311352,
      "componentType": 5125,
      "count": 15948,
      "max": [
        3647
      ],
      "min": [
        0
      ],
      "type": "SCALAR"
    },
    {
      "bufferView": 1,
      "byteOffset": 745704,
      "componentType": 5126,
      "count": 7391,
      "max": [
        0.32669201493263245,
        0.31746199727058411,
        1.2857600450515747
      ],
      "min": [
        0.0077100098133087158,
        0.01860499382019043,
        0.25268998742103577
      ],
      "type": "VEC3"
    },
    {
      "bufferView": 1,
      "byteOffset": 834396,
      "componentType": 5126,
      "count": 7391,
      "max": [
        0.99966037273406982,
        0.99982678890228271,
        0.99928778409957886
      ],
      "min": [
        -0.99991434812545776,
        -0.9999881386756897,
        -1
      ],
      "type": "VEC3"
    },
    {
      "bufferView": 2,
      "byteOffset": 490256,
      "componentType": 5126,
      "count": 7391,
      "max": [
        0.99999988079071045,
        0.99999833106994629,
        0.99150288105010986,
        1
      ],
      "min": [
        -1,
        -0.99999743700027466,
        -0.99992692470550537,
        -1
      ],
      "type": "VEC4"
    },
    {
      "bufferView": 0,
      "byteOffset": 375144,
      "componentType": 5125,
      "count": 30804,
      "max": [
        7390
      ],
      "min": [
        0
      ],
      "type": "SCALAR"
    },
    {
      "bufferView": 1,
      "byteOffset": 923088,
      "componentType": 5126,
      "count": 80,
      "max": [
        0.33447501063346863,
        0.34328800439834595,
        0.089047998189926147
      ],
      "min": [
        0.0091100037097930908,
        0.012418001890182495,
        0.0036510000936686993
      ],
      "type": "VEC3"
    },
    {
      "bufferView": 1,
      "byteOffset": 924048,
      "componentType": 5126,
      "count": 80,
      "max": [
        1,
        1,
        1
      ],
      "min": [
        -1,
        -1,
        0
      ],
      "type": "VEC3"
    },
    {
      "bufferView": 2,
      "byteOffset": 608512,
      "componentType": 5126,
      "count": 80,
      "max": [
        1,
        1,
        1,
        1
      ],
      "min": [
        -1,
        -1,
        -1,
        -1
      ],
      "type": "VEC4"
    },
    {
      "bufferView": 0,
      "byteOffset": 498360,
      "componentType": 5125,
      "count": 144,
      "max": [
        79
      ],
      "min": [
        0
      ],
      "type": "SCALAR"
    },
    {
      "bufferView": 1,
      "byteOffset": 925008,
      "componentType": 5126,
      "count": 772,
      "max": [
        0.34446299076080322,
        0.34990799427032471,
        0.13094300031661987
      ],
      "min": [
        0,
        0.0054450035095214844,
        0.0033939999993890524
      ],
      "type": "VEC3"
    },
    {
      "bufferView": 1,
      "byteOffset": 934272,
      "componentType": 5126,
      "count": 772,
      "max": [
        1,
        1,
        0.90976721048355103
      ],
      "min": [
        -1,
        -1,
        -0.9097665548324585
      ],
      "type": "VEC3"
    },
    {
      "bufferView": 2,
      "byteOffset": 609792,
      "componentType": 5126,
      "count": 772,
      "max": [
        1,
        1,
        1,
        1
      ],
      "min": [
        -1,
        -1,
        -1,
        -1
      ],
      "type": "VEC4"
    },
    {
      "bufferView": 0,
      "byteOffset": 498936,
      "componentType": 5125,
      "count": 1536,
      "max": [
        771
      ],
      "min": [
        0
      ],
      "type": "SCALAR"
    }
  ],
  "asset": {
    "extras": {
      "author": "Crafteri (https://sketchfab.com/Crafteri)",
      "license": "CC-BY-4.0 (http://creativecommons.org/licenses/by/4.0/)",
      "source": "https://sketchfab.com/models/de104ba657a14df099bde10cd9bbf4f2",
      "title": "Statue of Liberty"
    },
    "generator": "Sketchfab-3.18.5",
    "version": "2.0"
  },
  "bufferViews": [
    {
      "buffer": 0,
      "byteLength": 505080,
      "byteOffset": 0,
      "name": "floatBufferViews",
      "target": 34963
    },
    {
      "buffer": 0,
      "byteLength": 943536,
      "byteOffset": 505080,
      "byteStride": 12,
      "name": "floatBufferViews",
      "target": 34962
    },
    {
      "buffer": 0,
      "byteLength": 622144,
      "byteOffset": 1448616,
      "byteStride": 16,
      "name": "floatBufferViews",
      "target": 34962
    }
  ],
  "buffers": [
    {
      "byteLength": 2070760,
      "uri": "scene.bin"
    }
  ],
  "materials": [
    {
      "doubleSided": true,
      "emissiveFactor": [
        0,
        0,
        0
      ],
      "name": "2_-_Default",
      "pbrMetallicRoughness": {
        "baseColorFactor": [
          0.39596687889999999,
          0.5830405018,
          0.40336303870000001,
          1
        ],
        "metallicFactor": 0.25,
        "roughnessFactor": 0.59999999999999998
      }
    },
    {
      "doubleSided": true,
      "emissiveFactor": [
        1,
        1,
        0
      ],
      "name": "2_-_Fiamma",
      "pbrMetallicRoughness": {
        "baseColorFactor": [
          1,
          0.47230732040000001,
          0,
          1
        ],
        "metallicFactor": 1,
        "roughnessFactor": 0.5
      }
    },
    {
      "doubleSided": true,
      "emissiveFactor": [
        0,
        0,
        0
      ],
      "name": "7_-_Default",
      "pbrMetallicRoughness": {
        "baseColorFactor": [
          0.39157247769999998,
          0.57758044040000001,
          0.40197777979999999,
          1
        ],
        "metallicFactor": 0.75,
        "roughnessFactor": 0.75
      }
    },
    {
      "doubleSided": true,
      "emissiveFactor": [
        0,
        0,
        0
      ],
      "name": "7_-_PorteBlindate",
      "pbrMetallicRoughness": {
        "baseColorFactor": [
          0,
          0,
          0,
          1
        ],
        "metallicFactor": 1,
        "roughnessFactor": 1
      }
    },
    {
      "doubleSided": true,
      "emissiveFactor": [
        0,
        0,
        0
      ],
      "name": "8_-_DefaultA",
      "pbrMetallicRoughness": {
        "baseColorFactor": [
          1,
          1,
          1,
          1
        ],
        "metallicFactor": 0,
        "roughnessFactor": 0.80000000000000004
      }
    },
    {
      "doubleSided": true,
      "emissiveFactor": [
        0,
        0,
        0
      ],
      "name": "9_-_DefaultA",
      "pbrMetallicRoughness": {
        "baseColorFactor": [
          1,
          1,
          1,
          1
        ],
        "metallicFactor": 1,
        "roughnessFactor": 1
      }
    }
  ],
  "meshes": [
    {
      "primitives": [
        {
          "attributes": {
            "NORMAL": 1,
            "POSITION": 0,
            "TANGENT": 2
          },
          "indices": 3,
          "material": 1,
          "mode": 4
        }
      ]
    },
    {
      "primitives": [
        {
          "attributes": {
            "NORMAL": 5,
            "POSITION": 4,
            "TANGENT": 6
          },
          "indices": 7,
          "material": 2,
          "mode": 4
        }
      ]
    },
    {
      "primitives": [
        {
          "attributes": {
            "NORMAL": 9,
            "POSITION": 8,
            "TANGENT": 10
          },
          "indices": 11,
          "material": 4,
          "mode": 4
        }
      ]
    },
    {
      "primitives": [
        {
          "attributes": {
            "NORMAL": 13,
            "POSITION": 12,
            "TANGENT": 14
          },
          "indices": 15,
          "material": 0,
          "mode": 4
        }
      ]
    },
    {
      "primitives": [
        {
          "attributes": {
            "NORMAL": 17,
            "POSITION": 16
          },
          "indices": 18,
          "material": 2,
          "mode": 4
        }
      ]
    },
    {
      "primitives": [
        {
          "attributes": {
            "NORMAL": 20,
            "POSITION": 19,
            "TANGENT": 21
          },
          "indices": 22,
          "material": 2,
          "mode": 4
        }
      ]
    },
    {
      "primitives": [
        {
          "attributes": {
            "NORMAL": 24,
            "POSITION": 23,
            "TANGENT": 25
          },
          "indices": 26,
          "material": 2,
          "mode": 4
        }
      ]
    },
    {
      "primitives": [
        {
          "attributes": {
            "NORMAL": 28,
            "POSITION": 27,
            "TANGENT": 29
          },
          "indices": 30,
          "material": 2,
          "mode": 4
        }
      ]
    },
    {
      "primitives": [
        {
          "attributes": {
            "NORMAL": 32,
            "POSITION": 31,
            "TANGENT": 33
          },
          "indices": 34,
          "material": 2,
          "mode": 4
        }
      ]
    },
    {
      "primitives": [
        {
          "attributes": {
            "NORMAL": 36,
            "POSITION": 35,
            "TANGENT": 37
          },
          "indices": 38,
          "material": 2,
          "mode": 4
        }
      ]
    },
    {
      "primitives": [
        {
          "attributes": {
            "NORMAL": 40,
            "POSITION": 39,
            "TANGENT": 41
          },
          "indices": 42,
          "material": 2,
          "mode": 4
        }
      ]
    },
    {
      "primitives": [
        {
          "attributes": {
            "NORMAL": 44,
            "POSITION": 43,
            "TANGENT": 45
          },
          "indices": 46,
          "material": 2,
          "mode": 4
        }
      ]
    },
    {
      "primitives": [
        {
          "attributes": {
            "NORMAL": 48,
            "POSITION": 47,
            "TANGENT": 49
          },
          "indices": 50,
          "material": 3,
          "mode": 4
        }
      ]
    },
    {
      "primitives": [
        {
          "attributes": {
            "NORMAL": 52,
            "POSITION": 51,
            "TANGENT": 53
          },
          "indices": 54,
          "material": 5,
          "mode": 4
        }
      ]
    }
  ],
  "nodes": [
    {
      "children": [
        1
      ],
      "name": "RootNode (gltf orientation matrix)",
      "rotation": [
        -0.70710678118654746,
        -0,
        -0,
        0.70710678118654757
      ]
    },
    {
      "children": [
        2
      ],
      "name": "RootNode (model correction matrix)"
    },
    {
      "children": [
        3,
        4,
        5,
        6,
        7,
        8,
        9,
        10,
        11,
        12,
        13,
        14,
        15,
        16
      ],
      "matrix": [
        1,
        0,
        0,
        0,
        0,
        1,
        0,
        0,
        0,
        0,
        1,
        0,
        -0.20932100713253021,
        -0.17495399713516235,
        0,
        1
      ],
      "name": "LibertStatue.obj.cleaner.gles"
    },
    {
      "mesh": 0,
      "name": ""
    },
    {
      "mesh": 1,
      "name": ""
    },
    {
      "mesh": 2,
      "name": ""
    },
    {
      "mesh": 3,
      "name": ""
    },
    {
      "mesh": 4,
      "name": ""
    },
    {
      "mesh": 5,
      "name": ""
    },
    {
      "mesh": 6,
      "name": ""
    },
    {
      "mesh": 7,
      "name": ""
    },
    {
      "mesh": 8,
      "name": ""
    },
    {
      "mesh": 9,
      "name": ""
    },
    {
      "mesh": 10,
      "name": ""
    },
    {
      "mesh": 11,
      "name": ""
    },
    {
      "mesh": 12,
      "name": ""
    },
    {
      "mesh": 13,
      "name": ""
    }
  ],
  "scene": 0,
  "scenes": [
    {
      "name": "OSG_Scene",
      "nodes": [
        0
      ]
    }
  ]
}

